<svg width="72" height="50" viewBox="0 0 72 50" fill="none" xmlns="http://www.w3.org/2000/svg">
  <path
    d="M50.4124 8.12965C50.6737 5.73461 53.9765 5.30499 54.8418 7.55349C54.9717 7.89129 55.1795 8.19365 55.4483 8.43596C55.7171 8.67827 56.0394 8.85368 56.3888 8.94792C56.7382 9.04216 57.1049 9.05256 57.4592 8.97827C57.8134 8.90399 58.145 8.74711 58.4271 8.52043C60.3056 7.01219 62.9457 9.04328 61.9683 11.2464C61.8216 11.577 61.755 11.9375 61.7738 12.2987C61.7926 12.6598 61.8964 13.0115 62.0767 13.325C62.257 13.6385 62.5088 13.905 62.8115 14.1029C63.1142 14.3008 63.4593 14.4245 63.8188 14.4639C66.2139 14.7252 66.6435 18.028 64.395 18.8933C64.0572 19.0232 63.7548 19.231 63.5125 19.4998C63.2702 19.7686 63.0948 20.0909 63.0006 20.4403C62.9063 20.7897 62.8959 21.1564 62.9702 21.5106C63.0445 21.8649 63.2014 22.1965 63.4281 22.4786C64.9363 24.3571 62.9052 26.9972 60.7021 26.0198C60.3715 25.8731 60.011 25.8065 59.6498 25.8253C59.2887 25.8441 58.937 25.9479 58.6235 26.1282C58.31 26.3085 58.0435 26.5603 57.8456 26.863C57.6477 27.1657 57.524 27.5108 57.4846 27.8703C57.2233 30.2654 53.9205 30.695 53.0552 28.4465C52.9253 28.1087 52.7175 27.8063 52.4487 27.564C52.1799 27.3217 51.8576 27.1463 51.5082 27.0521C51.1588 26.9578 50.792 26.9474 50.4378 27.0217C50.0836 27.096 49.752 27.2529 49.4699 27.4796C47.5914 28.9878 44.9513 26.9567 45.9286 24.7536C46.0754 24.423 46.142 24.0625 46.1232 23.7013C46.1043 23.3401 46.0006 22.9885 45.8203 22.675C45.6399 22.3615 45.3882 22.095 45.0855 21.8971C44.7828 21.6992 44.4377 21.5755 44.0782 21.536C41.6831 21.2748 41.2535 17.972 43.502 17.1067C43.8398 16.9768 44.1422 16.769 44.3845 16.5002C44.6268 16.2314 44.8022 15.9091 44.8964 15.5597C44.9907 15.2103 45.0011 14.8435 44.9268 14.4893C44.8525 14.1351 44.6956 13.8035 44.4689 13.5214C42.9607 11.6429 44.9918 9.00283 47.1949 9.98014C48.6164 10.6127 50.2427 9.67781 50.4124 8.12965Z"
    stroke="white" stroke-width="2" stroke-linecap="round" stroke-linejoin="round" />
  <path
    d="M57.9151 17.484C58.0519 18.536 57.7652 19.5993 57.1181 20.44C56.471 21.2806 55.5165 21.8297 54.4645 21.9666C53.4124 22.1034 52.3492 21.8168 51.5085 21.1696C50.6679 20.5225 50.1187 19.568 49.9819 18.516C49.8451 17.464 50.1317 16.4007 50.7788 15.56C51.426 14.7194 52.3805 14.1703 53.4325 14.0334C54.4845 13.8966 55.5478 14.1832 56.3884 14.8304C57.2291 15.4775 57.7782 16.432 57.9151 17.484V17.484Z"
    stroke="white" stroke-width="2" stroke-linecap="round" stroke-linejoin="round" />
  <path fill-rule="evenodd" clip-rule="evenodd"
    d="M29.7545 9.65667C29.2021 6.00532 24.1162 5.55266 22.9275 9.04906C22.7498 9.57452 22.4504 10.0506 22.0539 10.4385C21.6574 10.8265 21.1749 11.1153 20.6457 11.2815C20.1165 11.4478 19.5555 11.4867 19.0083 11.3952C18.4612 11.3036 17.9434 11.0842 17.4971 10.7548C14.5244 8.55978 10.6075 11.8364 12.243 15.1501C13.2995 17.29 11.9664 19.8406 9.60716 20.1964C5.95372 20.7464 5.50086 25.8345 8.99995 27.0188C9.52555 27.1968 10.0017 27.4963 10.3896 27.8931C10.7775 28.2899 11.0662 28.7727 11.2322 29.3022C11.3982 29.8317 11.4368 30.3929 11.3449 30.9401C11.253 31.4873 11.0331 32.0051 10.7032 32.4513C8.50818 35.424 11.7848 39.3409 15.0985 37.7054C15.5959 37.4595 16.1444 37.3345 16.6992 37.3407C17.2541 37.3468 17.7997 37.4839 18.2915 37.7408C18.7834 37.9977 19.2076 38.3672 19.5296 38.8191C19.8517 39.271 20.0624 39.7925 20.1448 40.3413C20.6948 43.9947 25.7829 44.4476 26.9672 40.9485C27.1456 40.4232 27.4454 39.9474 27.8422 39.5598C28.239 39.1722 28.7217 38.8837 29.2511 38.7177C29.7804 38.5518 30.3414 38.5131 30.8885 38.6047C31.4356 38.6964 31.9534 38.9159 32.3997 39.2453C35.3724 41.4402 39.2893 38.1636 37.6538 34.85C37.4084 34.3525 37.2838 33.8041 37.2902 33.2494C37.2966 32.6947 37.4338 32.1493 37.6907 31.6576C37.9475 31.166 38.3167 30.7418 38.7683 30.4196C39.2199 30.0975 39.7412 29.8864 40.2897 29.8037C43.9431 29.2537 44.396 24.1655 40.8969 22.9812C40.3713 22.8033 39.8951 22.5037 39.5072 22.1069C39.1193 21.7101 38.8306 21.2273 38.6646 20.6979C38.4986 20.1684 38.46 19.6072 38.5519 19.0599C38.6439 18.5127 38.8638 17.9949 39.1937 17.5487C41.3887 14.576 38.112 10.6591 34.7984 12.2946C34.3009 12.5405 33.7525 12.6655 33.1976 12.6594C32.6427 12.6532 32.0972 12.5161 31.6053 12.2592C31.1135 12.0023 30.6892 11.6328 30.3672 11.181C30.0452 10.7291 29.8344 10.2075 29.7521 9.65876L29.7545 9.65667ZM24.3367 31.8728C26.1595 32.0351 27.9721 31.4666 29.3757 30.2924C30.7793 29.1182 31.659 27.4345 31.8212 25.6117C31.9835 23.7889 31.415 21.9763 30.2408 20.5727C29.0666 19.1691 27.3829 18.2894 25.5601 18.1272C23.7373 17.965 21.9247 18.5335 20.5211 19.7077C19.1175 20.8818 18.2378 22.5655 18.0756 24.3883C17.9134 26.2111 18.4819 28.0237 19.6561 29.4273C20.8302 30.8309 22.5139 31.7106 24.3367 31.8728Z"
    fill="white" />
</svg>