<svg width="64" height="21" viewBox="0 0 64 21" fill="none" xmlns="http://www.w3.org/2000/svg">
<path fill-rule="evenodd" clip-rule="evenodd" d="M53.207 16.207C53.0195 16.3945 52.7652 16.4998 52.5 16.4998C52.2349 16.4998 51.9806 16.3945 51.793 16.207L46.793 11.207C46.6056 11.0195 46.5003 10.7652 46.5003 10.5C46.5003 10.2348 46.6056 9.98052 46.793 9.79299L51.793 4.79299C51.8853 4.69748 51.9956 4.6213 52.1176 4.56889C52.2396 4.51648 52.3709 4.48889 52.5036 4.48774C52.6364 4.48659 52.7681 4.51189 52.891 4.56217C53.0139 4.61245 53.1255 4.6867 53.2194 4.78059C53.3133 4.87449 53.3876 4.98614 53.4379 5.10904C53.4881 5.23193 53.5134 5.36361 53.5123 5.49639C53.5111 5.62917 53.4836 5.76039 53.4311 5.88239C53.3787 6.0044 53.3026 6.11474 53.207 6.20699L48.914 10.5L53.207 14.793C53.3945 14.9805 53.4998 15.2348 53.4998 15.5C53.4998 15.7652 53.3945 16.0195 53.207 16.207Z" fill="white"/>
<line x1="48.5" y1="10.5" x2="0.5" y2="10.5" stroke="white" stroke-width="2"/>
</svg>
