<svg width="54" height="21" viewBox="0 0 54 21" fill="none" xmlns="http://www.w3.org/2000/svg">
<path fill-rule="evenodd" clip-rule="evenodd" d="M10.207 16.207C10.0195 16.3944 9.7652 16.4998 9.50004 16.4998C9.23488 16.4998 8.98057 16.3944 8.79304 16.207L3.79304 11.207C3.60557 11.0194 3.50025 10.7651 3.50025 10.5C3.50025 10.2348 3.60557 9.9805 3.79304 9.79297L8.79304 4.79297C8.88529 4.69746 8.99563 4.62128 9.11764 4.56887C9.23964 4.51646 9.37086 4.48888 9.50364 4.48772C9.63642 4.48657 9.7681 4.51187 9.89099 4.56215C10.0139 4.61243 10.1255 4.68669 10.2194 4.78058C10.3133 4.87447 10.3876 4.98612 10.4379 5.10902C10.4881 5.23192 10.5134 5.3636 10.5123 5.49638C10.5111 5.62915 10.4836 5.76037 10.4311 5.88238C10.3787 6.00438 10.3026 6.11473 10.207 6.20697L5.91404 10.5L10.207 14.793C10.3945 14.9805 10.4998 15.2348 10.4998 15.5C10.4998 15.7651 10.3945 16.0194 10.207 16.207Z" fill="white"/>
<line x1="53.5" y1="10.5" x2="5.5" y2="10.5" stroke="white" stroke-width="2"/>
</svg>
