<svg xmlns="http://www.w3.org/2000/svg" xmlns:xlink="http://www.w3.org/1999/xlink" viewBox="0 0 69.14 83.61"><defs><linearGradient id="linear-gradient" x1="70.81" y1="54.44" x2="16.3" y2="32.37" gradientUnits="userSpaceOnUse"><stop offset="0" stop-color="#2ecc71"/><stop offset="1" stop-color="#27ae60"/></linearGradient><linearGradient id="linear-gradient-2" x1="70.7" y1="54.72" x2="16.19" y2="32.65" xlink:href="#linear-gradient"/></defs><g id="Layer_2" data-name="Layer 2"><g id="Layer_1-2" data-name="Layer 1"><path fill="#ecf0f1" d="M0,6.79V45.2C0,61.33,14,75.93,34.57,83.61,55.19,75.93,69.14,61.33,69.14,45.2V6.79L34.57,0Z"/><path fill="#bdc3c7" d="M0,6.79V45.2C0,61.33,14,75.93,34.57,83.61V0Z"/><path fill="url(#linear-gradient)" d="M7.68,14.47V45.2c0,13.06,10.85,24.58,26.89,30.73,16-6.15,26.89-17.67,26.89-30.73V14.47L34.57,9.25Z"/><path fill="#2ecc71" d="M34.57,9.25V75.93c16-6.15,26.89-17.67,26.89-30.73V14.47Z"/><polygon fill="url(#linear-gradient-2)" points="48.89 26.89 30.9 44.56 23.41 37.26 17.04 43.79 24.53 51.09 30.53 57.23 30.9 57.62 55.26 33.03 48.89 26.89 48.89 26.89"/><polygon fill="#ecf0f1" points="48.89 23.05 30.9 40.71 23.41 33.42 17.04 39.95 24.53 47.24 30.53 53.39 30.9 53.77 55.26 29.19 48.89 23.05 48.89 23.05"/></g></g></svg>