<svg width="25" height="26" viewBox="0 0 25 26" fill="none" xmlns="http://www.w3.org/2000/svg">
<path fill-rule="evenodd" clip-rule="evenodd" d="M24.4139 0.586C24.7889 0.961056 24.9995 1.46967 24.9995 2C24.9995 2.53033 24.7889 3.03894 24.4139 3.414L14.4139 13.414C14.0389 13.7889 13.5302 13.9996 12.9999 13.9996C12.4696 13.9996 11.961 13.7889 11.5859 13.414L1.58592 3.414C1.2216 3.0368 1.02001 2.53159 1.02457 2.0072C1.02913 1.4828 1.23946 0.981179 1.61028 0.610363C1.9811 0.239547 2.48272 0.0292084 3.00712 0.0246515C3.53151 0.0200947 4.03671 0.221684 4.41392 0.586L12.9999 9.172L21.5859 0.586C21.961 0.211058 22.4696 0.000427246 22.9999 0.000427246C23.5302 0.000427246 24.0389 0.211058 24.4139 0.586ZM24.4139 12.586C24.7889 12.9611 24.9995 13.4697 24.9995 14C24.9995 14.5303 24.7889 15.0389 24.4139 15.414L14.4139 25.414C14.0389 25.7889 13.5302 25.9996 12.9999 25.9996C12.4696 25.9996 11.961 25.7889 11.5859 25.414L1.58592 15.414C1.3949 15.2295 1.24253 15.0088 1.13772 14.7648C1.0329 14.5208 0.977725 14.2584 0.975417 13.9928C0.97311 13.7272 1.02371 13.4639 1.12427 13.2181C1.22484 12.9723 1.37334 12.749 1.56113 12.5612C1.74891 12.3734 1.97222 12.2249 2.21801 12.1244C2.4638 12.0238 2.72716 11.9732 2.99272 11.9755C3.25828 11.9778 3.52072 12.033 3.76473 12.1378C4.00873 12.2426 4.22942 12.395 4.41392 12.586L12.9999 21.172L21.5859 12.586C21.961 12.2111 22.4696 12.0004 22.9999 12.0004C23.5302 12.0004 24.0389 12.2111 24.4139 12.586Z" fill="white"/>
</svg>
