<svg width="24" height="24" viewBox="0 0 24 24" fill="none" xmlns="http://www.w3.org/2000/svg">
  <path
    d="M21.4286 0.625H2.57143C1.15179 0.625 0 1.7168 0 3.0625V20.9375C0 22.2832 1.15179 23.375 2.57143 23.375H21.4286C22.8482 23.375 24 22.2832 24 20.9375V3.0625C24 1.7168 22.8482 0.625 21.4286 0.625ZM14.8554 20.1098C14.4054 20.1859 14.2393 19.9219 14.2393 19.7035C14.2393 19.4293 14.25 18.0277 14.25 16.8953C14.25 16.1031 13.9714 15.6004 13.6446 15.3363C15.6268 15.1281 17.7161 14.8691 17.7161 11.6242C17.7161 10.7 17.3679 10.2379 16.8 9.64375C16.8911 9.42539 17.1964 8.52656 16.7089 7.35859C15.9643 7.14023 14.2607 8.26758 14.2607 8.26758C13.5536 8.07969 12.7875 7.9832 12.0321 7.9832C11.2768 7.9832 10.5107 8.07969 9.80357 8.26758C9.80357 8.26758 8.1 7.14023 7.35536 7.35859C6.86786 8.52148 7.16786 9.42031 7.26429 9.64375C6.69643 10.2379 6.42857 10.7 6.42857 11.6242C6.42857 14.8539 8.42679 15.1281 10.4089 15.3363C10.1518 15.5547 9.92143 15.9305 9.84107 16.4688C9.33214 16.6871 8.03036 17.0629 7.25357 15.7629C6.76607 14.9605 5.8875 14.8945 5.8875 14.8945C5.01964 14.8844 5.82857 15.4125 5.82857 15.4125C6.40714 15.6664 6.81429 16.6414 6.81429 16.6414C7.33393 18.1496 9.81964 17.6418 9.81964 17.6418C9.81964 18.3477 9.83036 19.4953 9.83036 19.7035C9.83036 19.9219 9.66964 20.1859 9.21429 20.1098C5.67857 18.9875 3.20357 15.7984 3.20357 12.0711C3.20357 7.40937 6.96429 3.86992 11.8821 3.86992C16.8 3.86992 20.7857 7.40937 20.7857 12.0711C20.7911 15.7984 18.3911 18.9926 14.8554 20.1098ZM9.6 17.007C9.49821 17.0273 9.40179 16.9867 9.39107 16.9207C9.38036 16.8445 9.45 16.7785 9.55179 16.7582C9.65357 16.748 9.75 16.7887 9.76071 16.8547C9.77679 16.9207 9.70714 16.9867 9.6 17.007ZM9.09107 16.9613C9.09107 17.0273 9.01071 17.0832 8.90357 17.0832C8.78571 17.0934 8.70536 17.0375 8.70536 16.9613C8.70536 16.8953 8.78571 16.8395 8.89286 16.8395C8.99464 16.8293 9.09107 16.8852 9.09107 16.9613ZM8.35714 16.9055C8.33571 16.9715 8.22857 17.002 8.1375 16.9715C8.03571 16.9512 7.96607 16.875 7.9875 16.809C8.00893 16.743 8.11607 16.7125 8.20714 16.7328C8.31429 16.7633 8.38393 16.8395 8.35714 16.9055ZM7.69821 16.6313C7.65 16.6871 7.54821 16.677 7.46786 16.6008C7.3875 16.5348 7.36607 16.4383 7.41964 16.3926C7.46786 16.3367 7.56964 16.3469 7.65 16.423C7.71964 16.4891 7.74643 16.5906 7.69821 16.6313ZM7.21071 16.1691C7.1625 16.1996 7.07143 16.1691 7.0125 16.093C6.95357 16.0168 6.95357 15.9305 7.0125 15.8949C7.07143 15.8492 7.1625 15.8848 7.21071 15.9609C7.26964 16.0371 7.26964 16.1285 7.21071 16.1691ZM6.8625 15.6766C6.81429 15.7223 6.73393 15.6969 6.675 15.6461C6.61607 15.5801 6.60536 15.5039 6.65357 15.4684C6.70179 15.4227 6.78214 15.448 6.84107 15.4988C6.9 15.5648 6.91071 15.641 6.8625 15.6766ZM6.50357 15.3008C6.48214 15.3465 6.4125 15.3566 6.35357 15.3211C6.28393 15.2906 6.25179 15.2348 6.27321 15.1891C6.29464 15.1586 6.35357 15.1434 6.42321 15.1687C6.49286 15.2043 6.525 15.2602 6.50357 15.3008Z"
    fill="white" />
</svg>