<svg width="23" height="25" viewBox="0 0 23 25" fill="none" xmlns="http://www.w3.org/2000/svg">
  <path
    d="M20.5357 0.6875H2.46429C1.10328 0.6875 0 1.82076 0 3.21875V21.7812C0 23.1792 1.10328 24.3125 2.46429 24.3125H20.5357C21.8967 24.3125 23 23.1792 23 21.7812V3.21875C23 1.82076 21.8967 0.6875 20.5357 0.6875ZM9.1444 12.8219C4.48854 9.35107 4.53598 9.34232 3.28571 8.34279V7.01562C3.28571 6.31663 3.83736 5.75 4.51786 5.75H18.4821C19.1626 5.75 19.7143 6.31663 19.7143 7.01562V8.34279C18.4631 9.34311 18.5112 9.35128 13.8556 12.8219C13.3165 13.2256 12.244 14.1994 11.5 14.1874C10.7554 14.1989 9.68428 13.2263 9.1444 12.8219ZM19.7143 10.4842V17.9844C19.7143 18.6834 19.1626 19.25 18.4821 19.25H4.51786C3.83736 19.25 3.28571 18.6834 3.28571 17.9844V10.4842C4.00231 11.0534 4.9968 11.815 8.1785 14.1869C8.90557 14.7322 10.1281 15.8821 11.4998 15.8749C12.8802 15.882 14.1201 14.7126 14.8225 14.1861C18.0034 11.8149 18.9977 11.0534 19.7143 10.4842Z"
    fill="white" />
</svg>